<?xml version="1.0" encoding="utf-8"?>
<!-- Generator: Adobe Illustrator 25.0.1, SVG Export Plug-In . SVG Version: 6.00 Build 0)  -->
<svg version="1.0" id="Calque_1" xmlns="http://www.w3.org/2000/svg" xmlns:xlink="http://www.w3.org/1999/xlink" x="0px" y="0px"
	 viewBox="0 0 581.2 370.2" style="enable-background:new 0 0 581.2 370.2;" xml:space="preserve">
<style type="text/css">
	.st0{fill:#008600;}
</style>
<g>
	<path id="logotype" class="st0" d="M147.9,258.2v16.4h-18.4v-16.4h-7.8v40.6h7.8v-16h18.4v16h7.8v-40.6H147.9L147.9,258.2z
		 M327.4,257.9c5.5,0,10.7,2.2,14.7,6l0.3,0.3l-5.8,5.8l-0.3-0.3c-2.4-2.4-5.5-3.6-8.9-3.6c-7,0-12.5,5.6-12.5,12.5
		c0,7,5.6,12.5,12.5,12.5c3.2,0,6.5-1.4,8.9-3.6l0.3-0.3l5.8,5.8l-0.3,0.3c-3.9,3.9-9,6-14.7,6c-11.4,0-20.6-9.2-20.6-20.6
		C306.6,267.1,315.9,257.9,327.4,257.9L327.4,257.9z M182,257.9c11.4,0,20.6,9.2,20.6,20.6c0,11.4-9.2,20.6-20.6,20.6
		c-11.4,0-20.6-9.2-20.6-20.6S170.6,257.9,182,257.9L182,257.9z M182,265.9c-7,0-12.5,5.6-12.5,12.5c0,7,5.6,12.5,12.5,12.5
		c7,0,12.5-5.6,12.5-12.5C194.5,271.5,189,265.9,182,265.9L182,265.9z M436.6,298.8v-15.5h14.7v-7.7h-14.7v-10.4H456v-7h-27.3v40.6
		H436.6L436.6,298.8z M401.2,291.8v-9.2h14.7v-7.7h-14.7v-9.7H421v-7h-27.6v40.6h28.2v-7H401.2L401.2,291.8z M376.2,258.2v16.4
		h-18.4v-16.4h-7.8v40.6h7.8v-16h18.4v16h7.8v-40.6H376.2L376.2,258.2z M264.6,291.8v-9.2h15.7v-7.7h-15.7v-9.7h19.8v-7h-27.8v40.6
		h28.2v-7H264.6L264.6,291.8z M208.3,257.5v10.7v30.5h7.8v-22.4l11.6,11.9l11.6-11.9v22.4h7.8v-30.5v-10.7l-19.5,20.1L208.3,257.5
		L208.3,257.5z"/>
	<path id="icon" class="st0" d="M367,110.8l-78.3-39.9l-77.8,39.2c-0.3,0.2-0.5,0.5-0.5,0.9v128.5h157V111.3
		C367.3,111.3,367.3,110.8,367,110.8z M360,232.3h-43.7c-0.3-2.9-0.5-7.3-0.7-10.6c-0.9-14.3,0.9-50.8,0.5-106.5
		c0-1.9-2.2-2.7-3.4-1.4c-7.5,9.4-11.4,18.4-13.3,39.8c-1,11.4,5.6,33.1,7.5,49.3c1,8.9,0.7,18.3-0.3,29.3h-30
		c-0.2-3.4-0.3-6.8-0.5-10.1c-0.7-13.5-1.2-27.1-1.7-40.6c-0.2-2.6-0.3-6.3,1-8.7c0.5-0.9,1.2-1.7,1.7-2.6c1-1.5,1.7-3.4,2.4-5.1
		c1.5-4.6,2.7-9.7,2.9-14.7c0-0.2,0-0.2,0-0.2v-0.2c0-0.3,0-0.7,0-1.2v-0.2l-1.9-32.1c0-1.2-0.7-2-1.7-2c-1,0-2,1-2,2.2l-1,36.9
		c0,0.9-0.7,1.5-1.4,1.5c-0.9,0-1.2-0.5-1.2-1.5l-0.9-37.2c0-0.5-0.7-1.9-2-1.9c-1.4,0-1.7,1.7-1.7,2.2l-1.4,36.7
		c0,0.9-0.7,1.5-1.4,1.5c-0.9,0-1.2-0.7-1.2-1.7l-0.5-36.5c0-1.2-1-2.2-2-2.2s-1.7,1-1.7,2.2l-2.2,31.9v0.2c0,0.3,0,0.7,0,1.2v0.3
		c0.2,4.9,1.4,10.1,2.9,14.7c0.7,1.7,1.4,3.6,2.4,5.1c0.5,0.9,1.2,1.7,1.7,2.6c1.4,2.4,1.2,6,1,8.7c-0.5,13.5-1.2,27.1-1.7,40.6
		c-0.2,3.4-0.3,6.8-0.5,10.1h-46.4V114.9l71.1-35.8l71.3,36.3V232.3z"/>
	<path id="trademark" class="st0" d="M452.4,295.6h-1.4v-0.5h3.2v0.5h-1.4v3.6h-0.5L452.4,295.6L452.4,295.6z M455.2,295.1h0.7
		l1.5,2.2l1.5-2.2h0.7v4.1h-0.5v-3.1l-1.5,2.2l0,0l-1.5-2.2v3.2h-0.5v-4.3H455.2z"/>
</g>
</svg>
